<svg width="768" height="333" viewBox="0 0 768 333" fill="none" xmlns="http://www.w3.org/2000/svg">
<path d="M730.676 56.0269C731.78 55.8269 731.214 55.8231 732.406 56.257C733.258 58.4577 732.785 114.65 732.785 121.419L732.846 332.721C703.946 331.821 670.377 332.581 641.181 332.653C641.698 315.278 641.379 296.646 641.379 279.194L641.418 179.332C641.467 165.54 640.819 147.493 641.566 134.057C641.857 128.779 655.727 106.24 659.276 99.8656C639.116 98.9133 612.782 99.6624 592.067 99.6618L464.752 99.6602L105.942 99.7481C111.339 109.779 119.246 121.035 123.173 131.484C124.736 135.643 124.204 148.75 124.183 153.788L124.146 266.377C124.136 287.909 123.695 311.096 124.411 332.432C110.873 332.97 95.525 332.623 81.7877 332.617C65.2934 332.611 47.9361 332.942 31.5687 332.484L31.6373 142.756L31.5912 85.7247C31.583 79.2141 31.1506 63.2278 31.7736 57.2884C33.0419 56.3498 34.3812 56.0389 35.9484 56.0637C50.4064 56.291 64.9512 56.2268 79.4054 56.2279L178.959 56.2268L542.777 56.2174L662.885 56.2169C684.995 56.218 708.67 56.6316 730.676 56.0269Z" fill="#EA2024"/>
<path d="M72.236 129.768L80.5823 129.989C81.8358 139.575 82.5802 142.336 92.1037 144.442C96.1005 148.885 96.6668 151.008 98.5169 156.542L94.77 159.237C92.9101 165.875 88.7028 190.223 86.8472 194.267C85.2279 195.416 83.3542 195.257 81.2794 195.38C81.4107 199.1 82.2676 209.382 80.5587 212.152C77.0178 212.352 73.4269 212.203 69.8778 212.117C69.7525 208.482 70.5804 197.364 69.1741 195.275C67.7036 195.112 66.3698 195.016 64.8922 194.928C62.7982 191.915 58.3482 165.961 57.3786 160.362C45.9457 151.79 60.1593 144.2 67.7146 141.815C69.8591 141.138 71.6812 132.114 72.236 129.768Z" fill="white"/>
<path d="M75.8177 132.373C79.057 134.328 79.2031 140.95 82.2853 144.121C86.5574 148.517 93.459 145.864 93.9924 153.858C91.4765 156.089 80.254 155.194 76.49 155.134C69.862 155.255 63.2318 155.201 56.6064 154.974C59.4327 147.527 60.3791 147.186 67.8498 146.307C74.072 141.056 72.3531 137.398 75.8177 132.373Z" fill="#272727"/>
<path d="M73.5079 195.002L74.1522 195.003C76.639 195.027 77.8749 195.366 78.0897 198.042C78.3682 201.508 78.0155 205.599 77.898 209.089C76.2945 209.363 76.1308 209.457 74.5878 209.094C72.3878 206.557 73.4062 198.781 73.5079 195.002Z" fill="#272727"/>
<path d="M685.808 129.902L694.646 129.995C695.596 139.008 696.541 142.743 705.984 144.282C710.142 148.977 710.642 150.514 712.147 156.465C706.083 162.145 707.484 166.861 705.451 173.989C704.248 178.221 702.941 190.731 701.106 193.885C697.772 197.081 694.838 192.474 695.305 199.966C695.465 202.526 696.008 210.241 694.674 212.101C691.361 212.345 687.478 212.244 684.11 212.238C683.874 206.906 684.039 200.706 684.061 195.306L678.414 195.105C676.733 187.819 673.151 164.792 670.784 159.48C669.438 158.896 668.889 158.797 667.971 157.715C666.505 146.049 673.547 146.215 681.204 141.717C684.835 139.585 685.286 133.874 685.808 129.902Z" fill="white"/>
<path d="M690.372 132.322C691.778 133.382 692.987 137.989 693.794 139.711C696.585 145.632 698.65 146.401 704.594 148.126C706.896 148.794 707.945 152.846 708.708 155.114C702.556 155.276 695.865 155.155 689.664 155.165C685.758 155.137 673.228 156.466 671.404 153.463C674.387 143.832 678.194 149.629 683.995 144.227C687.137 141.302 687.411 136.016 690.372 132.322Z" fill="#272727"/>
<path d="M687.664 195.159C692.641 194.983 692.185 196.914 692.103 201.347C692.059 203.823 691.905 206.365 691.828 208.848C686.153 210.038 687.703 204.854 687.56 201.054C687.488 199.152 687.631 197.081 687.664 195.159Z" fill="#272727"/>
<path d="M142.076 133.829L448.283 133.858L556.735 133.843C578.46 133.853 601.169 134.174 622.812 133.664C623.504 154.985 622.9 179.905 622.905 201.435L622.922 332.293C620.972 332.286 618.637 332.129 616.654 332.05C617.181 302.597 616.72 271.794 616.758 242.24L616.791 209.764C616.791 202.627 617.006 194.112 616.264 187.116C579.713 187.877 541.156 187.313 504.495 187.196C505.121 203.23 504.67 219.133 504.791 235.145C505.038 267.367 504.462 299.916 504.994 332.109L497.645 332.149C498.15 312.844 497.76 292.431 497.722 273.085L497.727 187.022C490.35 187.189 482.972 187.279 475.595 187.291L386.122 187.205C386.035 191.962 386.067 196.781 386.073 201.55C386.144 243.676 385.804 285.829 386.282 327.948C386.293 328.965 385.969 331.912 384.722 332.072C382.953 332.299 381.173 332.534 379.772 331.368C378.152 320.332 379.712 304.614 379.476 293.156C378.877 264.439 379.229 235.618 379.212 206.891C379.207 200.416 379.673 193.941 379.196 187.48C371.95 186.715 351.689 187.253 343.783 187.262C318.398 187.352 293.013 187.302 267.628 187.112C266.772 201.145 267.336 220.354 267.334 234.681L267.317 332.237C265.163 332.24 263.089 332.446 261.132 331.67C260.539 328.787 260.84 309.848 260.842 305.6L260.863 231.571C260.865 223.626 261.569 193.243 259.757 187.417C254.846 186.436 235.401 187.354 229.347 187.364L148.923 187.283C148.541 226.003 149.247 264.869 148.96 303.6C148.89 313 148.799 322.799 149.186 332.178L141.695 332.03C143.114 312.537 142.213 281.808 142.22 261.575L142.076 133.829Z" fill="#1F1F1F"/>
<path d="M256.687 141.16C257.55 141.112 258.435 141.269 259.298 141.379C260.94 143.862 260.108 173.828 260.025 179.33C225.266 180.067 188.082 179.458 153.12 179.392C151.506 179.448 151.407 179.483 149.919 178.942C148.883 176.309 149.511 146.28 149.539 141.316C161.567 140.879 175.399 141.197 187.53 141.208L256.687 141.16Z" fill="white"/>
<path d="M272.346 141.164C297.902 140.825 323.598 141.486 349.172 141.17C358.896 141.05 368.801 141.106 378.515 141.396C378.641 150.936 379.19 169.555 378.427 178.439C377.29 179.629 377.526 179.238 375.318 179.391L268.141 179.332C268.119 171.717 267.569 148.061 268.411 141.997C269.94 140.93 270.269 141.256 272.346 141.164Z" fill="white"/>
<path d="M505.598 141.277L615.786 141.311C615.912 153.99 615.907 166.67 615.775 179.349C579.992 180.009 541.469 179.532 505.549 179.371C505.038 168.742 505.247 151.925 505.598 141.277Z" fill="white"/>
<path d="M393.203 141.156C427.156 141.313 463.455 140.492 497.095 141.368C497.117 147.684 497.644 173.713 496.842 178.758C495.266 179.608 493.134 179.376 491.245 179.382L386.809 179.357C386.732 166.661 386.732 153.964 386.809 141.267L393.203 141.156Z" fill="white"/>
<path d="M0.0710415 0.273922L523.874 0.321867C604.613 0.321373 686.697 -0.466052 767.348 0.424135C767.007 5.70259 766.875 10.9925 766.947 16.2815C764.321 19.5231 761.47 22.6839 758.713 25.8216C755.983 28.9912 754.208 31.2315 751.78 34.6438C726.858 35.7511 695.887 34.8168 670.311 34.8114L514.921 34.8064L14.6389 34.8855C9.88567 30.0572 3.93493 23.199 0.103999 17.676C-0.10529 12.2277 0.0649991 5.79596 0.0710415 0.273922Z" fill="#272727"/>
<path d="M111.646 103.001C128.87 102.307 151.062 102.946 168.555 102.948L281.926 102.955L654.003 102.872C651.223 108.226 647.334 114.569 644.269 119.881C642.319 123.22 640.38 125.925 637.71 128.732C618.769 129.062 598.818 128.763 579.779 128.765L466.147 128.771L127.679 128.751C123.297 123.276 114.428 109.653 111.646 103.001Z" fill="#272727"/>
<path d="M19.6595 39.6543C48.6821 40.0805 78.3891 39.7669 107.449 39.7691L267.24 39.774L745.442 39.7565L745.491 51.7713L244.992 51.7422L94.1172 51.7466C69.6039 51.7472 44.0832 52.1536 19.6529 51.7477C19.4266 48.4024 19.62 43.1501 19.6595 39.6543Z" fill="#272727"/>
<path d="M153.279 191.459C185.87 192.307 222.986 191.916 255.761 191.652C255.327 204.141 255.652 218.308 255.655 230.922C249.747 231.535 229.678 231.003 222.953 230.999L153.569 231.051C153.816 219.003 153.914 203.384 153.279 191.459Z" fill="#272727"/>
<path d="M509.317 191.514C543.056 192.141 577.63 191.559 611.49 191.724L611.413 231.095C577.383 230.909 543.353 230.895 509.323 231.056C509.455 217.875 509.455 204.694 509.317 191.514Z" fill="#272727"/>
<path d="M272.403 191.537C277.221 191.822 282.222 191.864 287.053 191.771C316.135 191.207 345.665 192.466 374.692 191.484C374.082 204.063 374.307 217.72 374.285 230.369C371.714 232.008 283.477 230.98 272.467 230.973L272.403 191.537Z" fill="#272727"/>
<path d="M391.275 191.457C422.976 192.269 461.06 192.172 492.789 191.644C493.234 203.74 492.959 218.863 492.789 231.005C459.429 230.89 424.569 230.554 391.292 231.089C390.836 219.06 391.034 203.521 391.275 191.457Z" fill="#272727"/>
<path d="M509.466 293.24C541.508 292.475 579.301 292.959 611.452 293.299L611.518 318.083C611.535 321.759 611.76 328.66 611.342 332.102C577.702 332.606 542.942 332.175 509.208 332.191C509.977 320.928 509.466 304.903 509.466 293.24Z" fill="#272727"/>
<path d="M272.118 242.421C306.02 242.045 340.612 242.282 374.548 242.395C374.207 254.891 374.037 268.829 374.581 281.274C348.76 281.578 322.84 281.107 297.013 281.31C288.793 281.375 280.434 281.377 272.232 281.036C272.566 269.247 272.565 254.128 272.118 242.421Z" fill="#272727"/>
<path d="M153.83 242.195C187.123 243.053 222.285 242.254 255.829 242.446C255.6 255.326 255.574 268.208 255.752 281.089C243.636 281.52 230.17 281.268 217.974 281.264L153.372 281.2C153.993 269.162 153.715 254.437 153.83 242.195Z" fill="#272727"/>
<path d="M509.812 242.008C518.239 242.865 535.938 242.381 544.946 242.379L611.573 242.419C611.397 247.792 612.056 279.05 610.7 281.172C577.471 281.789 542.634 281.267 509.279 281.254C509.812 268.427 509.406 255.048 509.812 242.008Z" fill="#272727"/>
<path d="M154.598 293.284C177.203 292.644 200.266 293.52 222.921 293.181C233.598 293.021 245.018 293.008 255.65 293.497C255.645 300.567 256.244 325.874 255.512 331.553L254.453 332.146L153.312 332.108C154.247 320.02 153.038 306.157 153.668 293.977L154.598 293.284Z" fill="#272727"/>
<path d="M391.281 293.239C395.406 293.056 400.086 293.114 404.223 293.193C433.589 293.752 463.527 292.351 492.833 293.445C492.937 306.347 492.921 319.251 492.795 332.153C459.352 332.637 424.707 332.168 391.166 332.167C391.061 319.191 391.1 306.214 391.281 293.239Z" fill="#272727"/>
<path d="M272.422 293.238C276.406 293.027 281.076 293.121 285.084 293.21C314.699 293.869 345.005 292.292 374.548 293.425C374.296 306.15 374.537 319.378 374.603 332.139L272.396 332.109L272.422 293.238Z" fill="#272727"/>
<path d="M391.154 242.334L493.085 242.421C492.568 255.071 493.14 268.239 492.783 281.056C481.225 281.634 466.954 281.271 455.143 281.266L391.192 281.331C390.928 268.721 391.159 255.021 391.154 242.334Z" fill="#272727"/>
<path d="M627.855 133.781L637.094 133.742C636.556 141.974 636.968 153.238 636.979 161.763L636.995 215.236L636.973 287.811C636.973 302.351 636.721 317.705 637.237 332.175C634.282 332.275 630.761 332.149 627.756 332.12C628.201 309.456 627.882 285.658 627.888 262.918L627.855 133.781Z" fill="#272727"/>
<path d="M128.244 133.792L137.016 133.744C137.255 156.928 137.309 180.112 137.18 203.297L137.203 332.179L128.095 332.065C128.633 302.662 128.23 272.036 128.225 242.533L128.244 133.792Z" fill="#272727"/>
</svg>
